Coordinates
version=1
nRows=7
nColumns=40
inDegrees=yes

Units are S.I. units (second, meters, Newtons, ...)
If the header above contains a line with 'inDegrees', this indicates whether rotational values are in degrees (yes) or radians (no).

endheader
time	pelvis_tilt	pelvis_list	pelvis_rotation	pelvis_tx	pelvis_ty	pelvis_tz	hip_flexion_r	hip_adduction_r	hip_rotation_r	knee_angle_r	knee_angle_r_beta	ankle_angle_r	subtalar_angle_r	mtp_angle_r	hip_flexion_l	hip_adduction_l	hip_rotation_l	knee_angle_l	knee_angle_l_beta	ankle_angle_l	subtalar_angle_l	mtp_angle_l	lumbar_extension	lumbar_bending	lumbar_rotation	arm_flex_r	arm_add_r	arm_rot_r	elbow_flex_r	pro_sup_r	wrist_flex_r	wrist_dev_r	arm_flex_l	arm_add_l	arm_rot_l	elbow_flex_l	pro_sup_l	wrist_flex_l	wrist_dev_l
      4.20833300	      0.14404836	     -2.42709818	     -3.76178745	      0.96270644	      0.99816963	     -0.46658291	     -6.29422235	      4.22374292	      8.16299468	      7.84046202	      0.13684188	     12.95600037	      0.00000000	      0.00000000	     27.82814987	     -6.05125476	     -2.60711605	     32.26301618	      0.56309586	      2.85248560	      0.00000000	      0.00000000	     -9.56309280	      3.63176851	      6.96671340	      0.25733540	     -7.83324918	     -6.95781921	     68.31478179	     55.12372036	      0.00000000	      0.00000000	    -18.84060115	     -3.40476414	     -9.72201999	     36.70577769	     75.47760273	      0.00000000	      0.00000000
      4.21666700	      0.24588840	     -2.28005955	     -4.12234735	      0.96163449	      0.99740201	     -0.46658346	     -7.33187791	      3.90142010	      8.46612208	      7.24717809	      0.12648712	     13.02606888	      0.00000000	      0.00000000	     27.21899024	     -5.93485813	     -2.86363449	     28.43661515	      0.49631256	      2.37693318	      0.00000000	      0.00000000	     -9.85645062	      3.36623093	      7.28624218	      0.82939393	     -7.94692837	     -6.84524020	     69.24871878	     55.14332757	      0.00000000	      0.00000000	    -19.10634879	     -3.26174654	    -10.25531752	     36.60302448	     75.55069508	      0.00000000	      0.00000000
      4.22500000	      0.04963475	     -2.45889868	     -4.30791395	      0.96048253	      0.99604386	     -0.46668017	     -8.00248336	      3.98563135	      8.68283956	      6.77194154	      0.11819268	     13.09146077	      0.00000000	      0.00000000	     27.06035815	     -6.09965196	     -2.68541935	     24.86736571	      0.43401741	      1.90372858	      0.00000000	      0.00000000	     -9.81638580	      3.51337374	      7.47365955	      1.30378100	     -8.15492953	     -6.62752268	     70.12006807	     55.14111088	      0.00000000	      0.00000000	    -19.41482108	     -3.10872482	    -10.66084297	     36.64084123	     75.56566827	      0.00000000	      0.00000000
      4.23333300	     -0.19677385	     -2.68946393	     -4.38376697	      0.95939271	      0.99450287	     -0.46684207	     -8.63039354	      4.14399220	      8.78635990	      6.29183347	      0.10981321	     13.14895074	      0.00000000	      0.00000000	     26.92531771	     -6.27878294	     -2.33395165	     21.30949467	      0.37192084	      1.21782557	      0.00000000	      0.00000000	     -9.72017177	      3.71715655	      7.61356357	      1.69502282	     -8.39434299	     -6.36748161	     70.96809654	     55.12678061	      0.00000000	      0.00000000	    -19.63947027	     -2.98277616	    -11.06465081	     36.67022878	     75.50967658	      0.00000000	      0.00000000
      4.24166700	     -0.62764769	     -3.13453463	     -4.49409908	      0.95836869	      0.99245580	     -0.46704294	     -9.02266313	      4.54524151	      9.08356059	      5.94469737	      0.10375454	     13.27050711	      0.00000000	      0.00000000	     27.13133737	     -6.72277341	     -1.88758243	     18.20972420	      0.31781964	      0.93114086	      0.00000000	      0.00000000	     -9.41963626	      4.19898784	      7.75407635	      2.02633675	     -8.68389557	     -6.08184428	     71.83529498	     55.13434040	      0.00000000	      0.00000000	    -19.98748818	     -2.81077884	    -11.29030416	     36.78599950	     75.40198127	      0.00000000	      0.00000000
      4.25000000	     -0.55200915	     -3.28927093	     -4.50331019	      0.95766421	      0.99110220	     -0.46747026	    -10.08455275	      4.56583002	      9.10547409	      5.34719623	      0.09332618	     13.19175803	      0.00000000	      0.00000000	     26.54019368	     -6.77676679	     -1.57803680	     14.77814567	      0.25792730	      0.16561869	      0.00000000	      0.00000000	     -9.66623120	      4.31721172	      7.70189925	      2.48508100	     -8.83057845	     -5.86462949	     72.57686972	     55.11191148	      0.00000000	      0.00000000	    -20.18812627	     -2.65314814	    -11.71427912	     36.76790879	     75.42220813	      0.00000000	      0.00000000
      4.25833300	     -0.89722246	     -3.68556327	     -4.62840069	      0.95688401	      0.98893335	     -0.46783343	    -10.57884543	      4.87445522	      9.50875864	      5.01098245	      0.08745814	     13.30307887	      0.00000000	      0.00000000	     26.66018254	     -7.17839560	     -1.14847974	     12.08095068	      0.21085237	      0.19134484	      0.00000000	      0.00000000	     -9.44038231	      4.73479107	      7.84294686	      2.77259978	     -9.13021781	     -5.55440625	     73.31118202	     55.13340500	      0.00000000	      0.00000000	    -20.44553000	     -2.47298361	    -11.89692456	     36.88358901	     75.41981406	      0.00000000	      0.00000000
